<?xml version="1.0" encoding="utf-8"?>
<!-- Generator: Adobe Illustrator 23.0.1, SVG Export Plug-In . SVG Version: 6.00 Build 0)  -->
<svg version="1.1" id="Layer_1" xmlns="http://www.w3.org/2000/svg" xmlns:xlink="http://www.w3.org/1999/xlink" x="0px" y="0px"
	 viewBox="0 0 2354.2 770.2" style="enable-background:new 0 0 2354.2 770.2;" xml:space="preserve">
<style type="text/css">
	.st0{fill:#139B99;}
	.st1{fill:#0F0F31;}
	.st2{fill:#149B99;}
	.st3{fill:#171738;}
	.st4{fill:#4A3956;}
	.st5{fill:#42ADAB;}
	.st6{fill:#57B5B4;}
	.st7{fill:#7D8698;}
	.st8{fill:#A29FAD;}
	.st9{fill:#73435E;}
	.st10{fill:#3F304E;}
</style>
<g>
	<path class="st0" d="M209.1,635.7c6.1-6.5,12.3-13,18.4-19.5c0.5-0.5,0.9-0.9,1.4-1.5c2.2-2.7,1.9-3.9-1.5-4.8
		c-11.4-3-22.8-5.9-34.1-9c-12.2-3.2-24.5-5.8-36.5-9.7c-2.5-0.8-5.1-1.6-7.7-0.3c-0.7,0.3-1.6,0.3-2.5,0.2c-3.3-0.1-5.7-1.9-6.6-5
		c-0.8-2.6,0.8-6.1,3.4-7.6c2.2-1.3,5.9-1.1,7.8,1c2.5,2.8,5.6,3.9,9.1,4.7c24,5.6,47.6,12.8,71.5,19c4.3,1.1,5.1,0.9,7.4-2.7
		c1.9-2.9,3.7-5.9,5.4-8.9c1.9-3.4,1.8-3.9-2.3-5c-9.1-2.4-18.3-4.8-27.4-7.1c-21.1-5.5-42.3-11.1-63.4-16.7
		c-3.1-0.8-6.2-1.1-9.3-0.5c-1.7,0.4-3.3,0.3-4.9-0.3c-2.7-1.1-4.6-4-4.4-6.6c0.3-2.8,2.9-6.2,5.1-6.9c1.4-0.4,2.8,0,3.8,0.7
		c10.8,8,24.1,9,36.4,12.5C200,568,222,573.6,244,579.4c0.8,0.2,1.6,0.5,2.4,0.6c3.7,0.7,4,0.5,5.6-3.1c1.4-3.4,2.8-6.7,4.1-10.1
		c1.3-3.4,1.3-3.6-2-4.6c-6-1.8-12.1-3.4-18.2-5c-24-6.4-48-12.8-72-19.3c-2.3-0.6-4.2-0.2-6.2,0.4c-3.3,1-5.8,0.2-7.8-2.6
		c-1.7-2.3-1.8-5-0.2-7.4c1.7-2.6,4.1-3.8,7.2-3.3c1.6,0.2,2.8,1,3.6,2.3c1.5,2.2,3.8,3,6.3,3.7c16.3,4.6,32.9,7.8,49.1,12.3
		c12.3,3.4,24.5,7.1,36.9,10c0.6,0.1,1.3,0.4,1.9,0.5c4.7,0.9,5.4,0.6,6.5-4.1c0.7-2.9,1.2-5.8,1.8-8.7c0.8-3.9,0.4-4.5-3.5-5.5
		c-5.1-1.3-10.3-2.6-15.4-3.8c-16.4-4-32.6-8.7-48.9-13.3c-3.6-1-7-1.4-10.7-0.4c-5.5,1.4-9.8-3.5-8.2-9c1.3-4.8,7.3-6.8,10.6-3.2
		c2.7,2.9,5.9,4.1,9.4,5c21.3,5.7,42.6,11.3,63.9,17c1.4,0.4,2.8,0.9,4.6,0.6c0.2-4.8,0.4-9.5,0.5-14.3c0-4.2-0.4-4.8-4.4-5.9
		c-9.6-2.7-19.2-5.2-28.8-7.8c-5.6-1.5-11.2-2.9-16.8-4.5c-3.5-1-6.9-1.9-10.7-0.5c-2.7,1-5.3,0.1-7-2.4c-1.6-2.4-1.8-4.9-0.5-7.5
		c2-4,7.3-5.1,10.4-1.9c2.4,2.5,5.3,4,8.5,4.8c14.4,3.8,28.8,7.6,43.2,11.3c1,0.3,1.9,0.6,2.9,0.7c1.9,0.3,2.9-0.5,2.7-2.5
		c-0.7-5.1-1.4-10.2-2.3-15.2c-0.3-1.8-1.9-2.6-3.6-3.1c-5.8-1.5-11.6-2.9-17.3-4.5c-2.7-0.7-5.3,0.4-7.9,0.4
		c-3.8,0-6.4-1.6-7.4-4.7c-0.9-2.8,0.1-5.9,2.3-7.6c2.4-1.9,5.5-2.5,7.8-0.2c5.5,5.5,12.8,5.9,19.5,7.9c3.2,1,4,0,3-3.2
		c-3-10.2-6.5-20.2-11.6-29.5c-1.8-3.3-2.6-3.7-5.9-2.1c-14.7,7.2-29.9,13.5-44.3,21.4c-29.7,16.4-53.1,39.4-70.7,68.3
		c-4.6,7.7-9.2,15.3-13.4,23.3c-0.6,1.1-0.8,2.5-2.6,3.2c0.3-7.5,1.8-14.6,3.6-21.6c7.3-28,21-52.4,41.1-73.3
		c15.8-16.5,34-29.5,54.3-39.7c16.6-8.3,33.1-16.8,49.6-25.3c16.3-8.4,31.6-18.2,45.4-30.3c12-10.6,21-23.4,28.1-37.6
		c10.4-21.1,14.8-43.5,13.8-67c-0.5-10.8-2.3-21.4-5.1-31.8c-0.3-1.3-0.5-2.6-0.7-3.9c-0.4-1.1-0.8-2.2,1.1-2.2
		c5.8,7,9.5,15.1,12.9,23.4c0.9,2.1,1.8,4.3,2.4,6.5c6.5,24.7,18.5,47.2,28.6,70.3c7.1,16.2,14.6,32.3,21.9,48.5
		c0.1,0.3,0.3,0.6,0.4,0.9c0.7,1.3,0.8,3.3,2.5,3.5c2,0.2,2.3-2,3-3.4c11.5-25.5,23.3-50.9,34.4-76.6
		c22.8-52.8,47.2-104.8,70.4-157.5c9.1-20.8,19.3-41.1,27.7-62.2c2.1-5.2,5.8-7.8,11.5-7.7c7.3,0.1,14.6,0.2,21.9,0.2
		c48.8,0,97.6,0,146.3,0c5.1,0,5.6,0.4,5.7,5.7c0,11.6,0,23.2,0,34.8c0,74.3,0,148.7,0,223c0,7.2,0.8,6.2-6.4,6.3
		c-4.1,0-8.3,0-12.4,0c-5.6,0-5.2,0.4-5.2-5c0-1,0-2,0-3c0-77.1,0-154.3,0-231.4c0-6.8,0.7-6.2-6-6.2c-43.6,0-87.3,0.1-130.9-0.1
		c-4.1,0-6.1,1.2-7.8,5c-32.3,72.5-64.8,144.9-97.2,217.3C448,350,431,388.3,413.8,426.6c-0.9,2.1-1.9,4.2-3.3,7.2
		c-16.7-37.2-33.2-73.8-49.8-110.8c-2,1.7-2.2,3.7-2.8,5.5c-3.8,11.9-8.7,23.3-15.5,33.8c-12.7,19.8-29.7,35.1-49.6,47.3
		c-5.1,3.1-10.3,6-15.5,9c-3.8,2.2-4,2.5-2.5,6.7c4,10.9,7.4,21.9,9.3,33.5c7.5,45.8,0,88.7-25.3,128.1c-5,7.8-10.4,15.4-16.8,22.2
		c-3,3.1-4.1,6.4-4.1,10.7c0.1,22.4,0.1,44.8,0.1,67.2c0,6.5,0,6.6-6.4,6.6c-45.3,0-90.6,0-135.9,0c-1.2,0-2.3-0.1-3.5,0
		c-1.9,0.1-2.8-0.7-2.7-2.6c0-0.7,0-1.3,0-2c0-32.8,0-65.7,0-98.5c0-0.8,0.1-1.6,0.1-3.1c2.2,2,3.2,4,4.4,5.9
		c5.6,8.8,11.2,17.6,16.8,26.4c1.9,2.9,2.4,6.1,2.4,9.5c0,12.1,0,24.2,0,36.3c0,4.1,0.1,4.1,4.1,4.1c30.9,0,61.7,0,92.6,0
		c3.9,0,3.9-0.1,3.9-3.8c0-9,0-17.9,0-26.9c0-3.2-0.1-3.2-3.7-1.9C209.2,637.2,208.8,636.7,209.1,635.7z"/>
	<path class="st1" d="M110.7,591.8c-13.6-18.3-21.1-38.8-23.3-61.4c-1-10.3-0.3-20.5,1-30.7c0.7-6.1,1.1-12.2,1.1-18.4
		c0.1-136.5,0-273.1,0-409.6c0-6.3,0-6.3,6.2-6.3c56.4,0,112.8,0.1,169.2-0.1c5,0,7.3,1.7,9.3,6.1c15.7,35.6,31.7,71.1,47.7,106.5
		c1.6,3.4,2.2,6.9,2.4,10.6c0.9,18.4,1.6,36.8,2.4,55.1c0,0.3-0.1,0.6-0.2,1c-1.5-0.5-1.6-1.9-2.1-3c-22-49.1-44.1-98.2-66-147.3
		c-1.7-3.7-3.6-5.2-7.8-5.1c-44.1,0.2-88.3,0.1-132.4,0.1c-0.7,0-1.3,0.1-2,0c-2.3-0.3-2.9,0.9-2.7,2.9c0.1,1,0,2,0,3
		c0,112.5,0,225,0,337.4c0,1.7,0,3.3,0,6.1c2.7-3.2,4.7-5.6,6.8-8c14.3-16.3,31.6-28.7,50.5-39c2-1.1,4.9-1.6,5.7-3.6
		c0.8-2-1.1-4.3-1.9-6.5c-8.9-25.3-13.3-51.4-11-78.2c3.3-37.3,16.6-70.8,40.7-99.6c9.7-11.6,20.7-21.9,33.5-30.1
		c1.1-0.3,1.4,0.2,1.3,1.2c-8.3,7.8-15.8,16.4-23.4,25.6c8.4,2.2,16.4,4.4,24.3,6.5c17.3,4.6,34.6,9.1,51.8,13.7
		c3.4,0.9,6.7,1.4,10.2,0.3c2.9-0.9,5.8,0.5,7.3,2.9c1.5,2.5,1.7,5,0.1,7.5c-1.5,2.4-4.4,3.6-7.3,3.2c-1.8-0.3-3-1.3-4.1-2.6
		c-1.6-1.9-3.6-2.8-5.9-3.4c-25.8-6.8-51.5-13.6-77.3-20.5c-2.7-0.7-4.2-0.4-5.6,2.2c-2.3,4.4-4.9,8.6-7.4,12.9
		c1.4,1.7,3.4,1.6,5.1,2.1c31,8.2,62.1,16.4,93.1,24.6c2.8,0.8,5.5,0.9,8.3,0.2c3.8-1,6.7,0.5,8.2,3.7c1.4,3,0.5,6.5-2.1,8.4
		c-2.7,2-6.5,1.9-9.1-0.8c-2.3-2.5-5-3.5-8.1-4.3c-31.4-8.3-62.7-16.7-94.1-25.1c-4.9-1.3-4.9-1.3-6.8,3.6
		c-1.7,4.3-3.3,8.6-5.1,13.4c6.1,1.6,11.8,3.1,17.5,4.7c25.1,6.6,50.2,13.2,75.3,19.9c3.2,0.8,6,0.9,9.2,0c3-0.8,5.5,0.6,7.2,3.2
		c1.6,2.5,1.4,5.1-0.2,7.5c-1.6,2.4-4,3.4-6.9,3c-1.7-0.2-3.1-1.3-4.2-2.4c-1.8-1.8-3.9-2.9-6.4-3.6c-30.9-8.2-61.7-16.4-92.6-24.6
		c-0.2,0-0.3,0-0.9,0.1c-1.7,5.3-2.3,11.1-3.5,16.7c-0.5,2.5,1.4,2.6,3,3c10.6,2.8,21.1,5.5,31.7,8.3c11.7,3.1,23.3,6.3,35,9.3
		c3.3,0.9,6.5,1.7,10.2,0.5c4-1.4,7.8,1.5,8.5,5.4c0.7,3.4-1.7,7-5.2,8c-2.7,0.8-5.1,0.1-6.7-2.1c-1.7-2.3-4-3.2-6.7-3.9
		c-22.2-5.9-44.5-11.8-66.7-17.7c-1.4-0.4-2.8-1.2-4.9-0.5c0,5.5,0,11.3,0,17c0,2.4,1.9,2.8,3.7,3.3c7.2,1.9,14.4,3.9,21.6,5.8
		c8.5,2.2,17,4.4,25.4,6.7c3.4,1,6.6,1.4,10.2,0.4c4.4-1.2,7.9,1.2,8.6,5.2c0.5,2.9-0.7,5.9-3.2,7.3c-2.4,1.4-5.9,1.5-7.8-0.7
		c-2.9-3.2-6.5-4.3-10.4-5.3c-14.9-3.9-29.8-7.9-44.6-11.8c-0.8-0.2-1.5-0.7-2.6,0c0.6,6.1,2,12.2,3.1,18.3c0.3,1.7,1.7,2.4,3.2,2.8
		c6.1,1.6,12.2,3.2,18.2,4.9c2.1,0.6,3.9-0.4,5.8-0.8c4.1-0.8,7.3,0.8,8.5,4.3c1,3,0,6.1-2.5,7.9c-2.7,1.9-5.8,2.2-8.2-0.2
		c-6.2-6.1-14.5-5.6-22.6-8.7c3.8,12.5,8.4,23.6,14.3,34c1.7,0.4,2.7-0.5,3.8-1.1c15.9-7.4,32-14.3,47.2-23.3
		c33.6-19.9,58.6-47.8,76.6-82.2c2.3-4.3,4.3-8.8,6.8-13.1c0.7,4.1-0.3,8.1-1,12c-5.3,30.7-18.9,57.3-39.3,80.6
		c-16.4,18.7-36.5,32.6-58.4,44.1c-16.6,8.7-33.4,16.9-50,25.5c-14.4,7.5-28.4,15.7-40.7,26.5c-23.4,20.6-37.9,46.1-43.4,76.8
		c-4.3,24-1.9,47.5,5.2,70.6C112,591.8,111.6,592.1,110.7,591.8z"/>
	<path class="st0" d="M320,468.7c7.9-0.7,14.9-3.5,20.7-8.6c1.6,0.4,1.6,1.7,2.1,2.7c7.8,18.3,15.7,36.5,23.3,54.9
		c1.4,3.4,3.3,4.6,7,4.6c21.7-0.2,43.5-0.2,65.2,0c4.4,0,6.5-1.6,8.2-5.5c17.1-40.5,34.1-80.9,51.5-121.2
		c14.5-33.6,28.9-67.3,43-101.1c1.9-4.4,3.7-8.9,6.9-12.6c7.6-8.9,17.4-11.4,28.3-9c11.3,2.4,17.9,10.1,21.1,20.9
		c0.9,3.2,1.1,6.5,1.1,9.8c-0.1,9.6-0.2,19.2-0.2,28.9c0,110.2,0,220.3,0,330.5c0,7.6-0.9,6.6,6.6,6.6c32,0,64,0,96.1,0
		c1,0,2-0.1,3,0c2.8,0.4,3.4-1,3.3-3.5c-0.1-2.6,0-5.3,0-8c0-1.7,0.8-2.4,2.4-2.4c6.3,0,12.6,0,18.9,0c1.9,0,2.7,0.7,2.7,2.6
		c-0.1,10.6-0.1,21.2-0.1,31.8c0,2.4-0.9,3.7-3.5,3.4c-1-0.1-2,0-3,0c-47.9,0-95.9,0-143.8,0c-0.5,0-1,0-1.5,0c-5,0-4.8,0.5-4.9-4.9
		c0-1.5,0-3,0-4.5c0-91.4,0-182.8,0-274.2c0-20.1,0.3-40.1,0.3-60.2c0-16.3-0.2-32.5-0.3-48.8c0-1.3,0-2.6-0.6-3.9
		c-1.7-3.4-5.4-3.7-7.5-0.5c-0.8,1.2-1.3,2.7-1.9,4c-12.4,29.3-24.8,58.6-37,88c-15.3,36.7-31.2,73.1-46.9,109.7
		c-6.3,14.8-12.7,29.5-18.9,44.3c-1.2,2.8-2.7,3.6-5.6,3.5c-18.1-0.2-36.2-0.3-54.2-0.3c-13.3,0-26.5,0.3-39.8,0.2
		c-11.5-0.1-9.1,0.7-13-8.4c-9.3-21.4-18.3-43-27.4-64.5C320.8,471.8,320.2,470.4,320,468.7z"/>
	<path class="st0" d="M1936.1,575.7c0-2.5,0-4.3,0-6.1c0-62,0-124.1,0-186.1c0-2.6-0.1-5.3,1.2-7.8c2.4-4.8,7.8-8.1,13-7.6
		c5.6,0.5,10.5,4.6,11.9,9.8c0.6,2.1,0.7,4.2,0.7,6.4c0,75.6,0,151.3,0,226.9c0,2.5-0.1,5-1.1,7.3c-4,9.1-15.3,12.8-23.4,3.3
		c-8.4-9.8-16.6-19.8-24.9-29.8c-35-42.1-69.9-84.1-104.9-126.2c-12.1-14.5-24.1-29.1-36.3-43.6c-0.8-1-1.3-2.3-3.3-2.9
		c0,1.9,0,3.6,0,5.3c0,61.5,0,123.1,0,184.6c0,2,0.1,4-0.2,6c-0.9,6.8-6.4,11.6-13.3,11.5c-7,0-12.4-4.7-13.2-11.7
		c-0.2-1.3-0.1-2.6-0.1-4c0-76,0-151.9,0-227.9c0-1.7-0.1-3.4,0.3-4.9c1.3-5.3,4.6-8.9,9.8-10.1c5-1.2,9.6,0.1,13,4.1
		c8.4,9.9,16.7,19.8,24.9,29.7c43,51.5,86,103.1,129,154.6c4.1,5,8.2,10,12.4,14.9C1932.9,573,1933.7,574.7,1936.1,575.7z"/>
	<path class="st1" d="M705.1,496.3c0-37.3,0-74.6,0-112c0-2-0.1-3.9,0.4-5.9c1.4-6.7,6.3-11.1,13.1-11.4c4.8-0.2,9.6,0,14.4,0
		c46.9,0,93.9,0,140.8,0c1.5,0,3-0.1,4.5,0.1c7,0.7,12.3,6.5,12.3,13.3c0,7-5.5,12.9-12.7,13.4c-1.5,0.1-3,0-4.5,0
		c-44.9,0-89.9,0-134.8,0c-0.8,0-1.7,0-2.5,0c-4.6,0-4.3-0.3-4.3,4.3c0,26.7,0,53.4,0,80.1c0,4.1,0,4.2,4.4,4.2
		c40.6,0,81.3,0,121.9,0c3.2,0,6.3,0.2,9.1,1.8c5.3,3,7.9,8.7,6.6,14.8c-1.2,5.6-6.1,9.8-12,10.3c-1.5,0.1-3,0-4.5,0
		c-39.6,0-79.3,0-118.9,0c-1,0-2,0-3,0c-3.7,0.1-3.7,0.1-3.7,3.9c0,27.2,0,54.4,0,81.6c0,4.1,0,4.1,4.5,4.1c21.4,0,42.8,0,64.2,0
		c25.9,0,51.7,0,77.6,0c4.6,0,8.9,0.8,12.2,4.4c3.8,4.2,4.7,9.1,2.6,14.3c-2,5.1-6,7.8-11.4,8.2c-0.8,0.1-1.7,0-2.5,0
		c-52.9,0-105.8,0-158.7,0c-3.4,0-6.6-0.5-9.4-2.6c-3.6-2.6-5.3-6.3-5.7-10.6c-0.1-1.5,0-3,0-4.5
		C705.1,570.9,705.1,533.6,705.1,496.3z"/>
	<path class="st0" d="M1492.9,496.9c0-37.3,0-74.6,0-112c0-1.8,0-3.7,0.2-5.5c0.7-7,5.7-11.8,12.8-12.3c1.2-0.1,2.3,0,3.5,0
		c50.9,0,101.8,0,152.8,0c2.3,0,4.6,0,6.9,0.8c5.9,2,9.9,7.8,9.3,13.7c-0.6,6.5-5.4,11.5-11.8,12.3c-1.6,0.2-3.3,0.1-5,0.1
		c-45.5,0-90.9,0-136.4,0c-5.4,0-5.6-1.1-5.6,5.7c0,25.9,0,51.8,0,77.6c0,0.5,0,1,0,1.5c0.1,3.7,0.1,3.7,4,3.7c17.7,0,35.5,0,53.2,0
		c23.1,0,46.1,0,69.2,0c2.5,0,5,0.1,7.3,1.1c5.9,2.3,9.2,8.2,8.3,14.8c-0.8,6-5.9,10.6-12.3,11c-1.5,0.1-3,0-4.5,0
		c-39.5,0-79,0-118.4,0c-1,0-2,0-3,0c-3.7,0.1-3.8,0.1-3.8,4c0,27.2,0,54.4,0,81.6c0,4,0.1,4,4.2,4c24.7,0,49.4,0,74.1,0
		c22.2,0,44.5,0,66.7,0c2.7,0,5.3,0.1,7.9,0.9c6.1,2,9.7,7.9,9,14.4c-0.8,6.4-5.8,11.2-12.3,11.6c-0.8,0-1.7,0-2.5,0
		c-52.9,0-105.8,0-158.7,0c-3,0-6-0.2-8.6-1.9c-3.4-2.2-5.6-5.2-6.1-9.2c-0.3-2.1-0.3-4.3-0.3-6.4
		C1492.9,571.2,1492.9,534,1492.9,496.9z"/>
	<path class="st1" d="M2218.5,377.5c-2.9,2.2-5.5,3.9-7.9,5.9c-3.9,3.4-7.2,7.4-9.4,12.1c-1,2.2-2,2.3-4.2,1.5
		c-13.6-5.3-27.7-7.7-42.3-7.1c-26.9,1-50.4,10.3-70.4,28.3c-17.7,15.9-29.3,35.5-33.7,58.9c-6.4,34.2,2,64.8,25,90.9
		c16.4,18.6,36.8,30.7,61.4,35.2c33.8,6.1,64.2-1.7,90.4-24.1c22.4-19.1,34.2-43.7,36.7-73c1.5-17-1.1-33.3-7.2-49.2
		c-0.3-0.8-0.6-1.5-0.8-2.3c0-0.1,0-0.3,0-0.8c8.5-3.9,15-10.3,20-18.6c28.2,52.9,18.2,126.3-37.3,169.1
		c-52.2,40.3-126.1,36.5-174.9-9.9c-49.8-47.3-56.5-120.6-16.2-175.3C2089.6,362,2163.7,349.1,2218.5,377.5z"/>
	<path class="st0" d="M1405.5,520.9c9.4,3.8,17.9,3.6,26.1-1c1.3,1.1,0.8,2.3,0.8,3.3c0,18.1,0,36.2,0,54.2c0,4.5-1.2,8.4-4.4,11.7
		c-21.4,22.8-47.3,37-78.3,41.7c-34.7,5.2-66.7-2.3-95.6-21.7c-31.6-21.2-51.7-50.8-58-88.5c-6.9-41.2,3.4-78.3,30.9-110
		c21.4-24.7,48.6-39.8,80.8-45.2c35.4-5.9,68.2,1.3,98,21.4c3.4,2.3,6.3,5,6.9,9.3c0.9,5.7-0.7,10.6-5.7,13.9
		c-4.9,3.2-10,3.2-15,0.1c-3-1.8-5.7-4-8.8-5.7c-30.3-16.9-61.8-18.7-93.8-6.1c-28.2,11.1-49,30.8-60.3,58.8
		c-16.2,40.3-9.7,77.8,18.5,110.9c17.1,20,39,32.3,65.1,36.2c33.8,5.1,63.6-3.9,89.2-26.7c2.5-2.3,3.6-4.7,3.6-8.2
		c-0.2-14.3-0.1-28.5-0.1-42.8C1405.5,524.9,1405.5,523.2,1405.5,520.9z"/>
	<path class="st1" d="M1046.1,505c0-35,0-70,0-105c0-1.2-0.1-2.3,0-3.5c0.1-1.9-0.5-2.8-2.5-2.6c-1.2,0.1-2.3,0-3.5,0
		c-23.1,0-46.1,0-69.2,0c-1.3,0-2.7,0.1-4,0c-7.1-0.6-12.3-6.2-12.4-13.2c-0.1-7.2,5.2-13,12.4-13.6c1.3-0.1,2.7,0,4,0
		c58.9,0,117.8,0,176.6,0c2.3,0,4.6-0.1,6.9,0.7c6.5,2.2,10.1,7.8,9.3,14.6c-0.7,6.3-5.8,11.1-12.4,11.5c-1.5,0.1-3,0-4.5,0
		c-22.7,0-45.4,0-68.2,0c-1.2,0-2.3,0.1-3.5,0c-1.7-0.1-2.5,0.5-2.4,2.3c0.1,1.3,0,2.7,0,4c0,70,0,140,0,210c0,4.8-0.8,9.2-4.6,12.6
		c-4.1,3.7-8.8,4.5-13.9,2.6c-5.1-1.9-7.9-5.8-8.4-11.3c-0.1-1.5,0-3,0-4.5C1046.1,574.6,1046.1,539.8,1046.1,505z"/>
	<path class="st0" d="M2269.9,415.1c1,13.8-10.6,30.3-30,30.5c-16.7,0.1-29.6-13.3-30.1-30c-0.4-13,9.8-30.2,30.2-30.5
		C2256.6,384.8,2269.9,398.4,2269.9,415.1z"/>
	<path class="st1" d="M319.1,462.2c-13,0.1-26.2-9.7-26.1-26.3c0.1-15.5,11.9-25.8,25.9-26.1c14.3-0.3,26,11.7,26,26.4
		C345,450.7,333.5,462.2,319.1,462.2z"/>
	<path class="st2" d="M322.7,494.2c-0.2,7.3-5.6,12.4-12.8,12.2c-6.9-0.2-12.4-5.7-12.3-12.3c0.1-7.9,5.8-13.1,13.9-12.8
		C317.6,481.6,322.9,487.7,322.7,494.2z"/>
	<path class="st1" d="M2252.3,363.7c0.1,6.8-5.3,12.3-12.2,12.4c-6.9,0.1-12.4-5.2-12.6-12c-0.2-6.9,5.6-12.8,12.5-12.8
		C2246.7,351.3,2252.3,356.9,2252.3,363.7z"/>
	<path class="st3" d="M2267.7,374c0,3.3-2.8,6-6.1,5.8c-2.9-0.2-5.6-3-5.6-5.9c0.1-3,2.7-5.7,5.7-5.8
		C2264.9,367.9,2267.7,370.7,2267.7,374z"/>
	<path class="st4" d="M239.1,174.9c-0.4-0.4-0.9-0.8-1.3-1.2c1.4-1.6,3.2-2.7,5.2-3.6c0.2,0.2,0.3,0.4,0.2,0.6
		c-0.1,0.2-0.1,0.3-0.2,0.3C242.1,172.7,240.8,174,239.1,174.9z"/>
	<path class="st5" d="M341.5,219.6c-0.9,0.4-0.9,1.4-1.1,2.2c-1.1-1.3-1.2-2.8-0.8-4.4C340.9,217.8,341.3,218.7,341.5,219.6z"/>
	<path class="st6" d="M209.1,635.7c0.4,0.4,0.8,0.8,1.2,1.2c-0.8,1.2-2.1,1.3-3.8,2.3C206.8,637.1,207.9,636.4,209.1,635.7z"/>
	<path class="st7" d="M110.7,591.8c0.4-0.3,0.7-0.6,1.1-1c0.9,0.6,1.3,1.7,0.6,2.3C111.2,593.8,110.9,592.6,110.7,591.8z"/>
	<path class="st8" d="M244.9,168.8c0.2-0.7,1-1.1,1.3-0.6c0.6,1.1-0.6,1.3-1.3,1.7c-0.3-0.2-0.3-0.5-0.2-0.7
		C244.7,168.9,244.8,168.8,244.9,168.8z"/>
	<path class="st9" d="M244.9,168.8c0,0.4,0,0.7,0,1.1c0,0-0.4,0.2-0.4,0.2l-0.4-0.2l-0.1-0.1C243.9,169.1,244.3,168.9,244.9,168.8z"
		/>
	<path class="st10" d="M243,171c0-0.3,0-0.6-0.1-0.9c0.3-0.1,0.6-0.2,1-0.3c0,0,0.1,0.1,0.1,0.1C244.1,170.6,243.6,170.9,243,171z"
		/>
</g>
</svg>
